<?xml version="1.0" standalone="no"?><!DOCTYPE svg PUBLIC "-//W3C//DTD SVG 1.1//EN" "http://www.w3.org/Graphics/SVG/1.1/DTD/svg11.dtd"><svg t="1529719370831" class="icon" style="" viewBox="0 0 1024 1024" version="1.1" xmlns="http://www.w3.org/2000/svg" p-id="3270" xmlns:xlink="http://www.w3.org/1999/xlink" width="32" height="32"><defs><style type="text/css"></style></defs><path d="M392.3968 128l-153.6 0c-56.32 0-102.6048 46.08-102.6048 102.4l0 153.6c0 56.32 46.2848 102.4 102.6048 102.4l153.6 0c56.32 0 102.1952-46.08 102.1952-102.4L494.592 230.4C494.592 174.08 448.7168 128 392.3968 128zM453.632 384c0 33.8944-27.5456 61.44-61.44 61.44L238.592 445.44c-33.8944 0-61.44-27.5456-61.44-61.44L177.152 230.4c0-33.8944 27.5456-61.44 61.44-61.44l153.6 0c33.8944 0 61.44 27.5456 61.44 61.44L453.632 384z" p-id="3271" fill="#515151"></path><path d="M801.9968 128l-153.6 0c-56.32 0-102.6048 46.08-102.6048 102.4l0 153.6c0 56.32 46.2848 102.4 102.6048 102.4l153.6 0c56.32 0 102.1952-46.08 102.1952-102.4L904.192 230.4C904.192 174.08 858.3168 128 801.9968 128zM863.232 384c0 33.8944-27.5456 61.44-61.44 61.44L648.192 445.44c-33.8944 0-61.44-27.5456-61.44-61.44L586.752 230.4c0-33.8944 27.5456-61.44 61.44-61.44l153.6 0c33.8944 0 61.44 27.5456 61.44 61.44L863.232 384z" p-id="3272" fill="#515151"></path><path d="M392.3968 537.6l-153.6 0c-56.32 0-102.6048 46.08-102.6048 102.4l0 153.6c0 56.32 46.2848 102.4 102.6048 102.4l153.6 0c56.32 0 102.1952-46.08 102.1952-102.4L494.592 640C494.592 583.68 448.7168 537.6 392.3968 537.6zM453.632 793.6c0 33.8944-27.5456 61.44-61.44 61.44L238.592 855.04c-33.8944 0-61.44-27.5456-61.44-61.44L177.152 640c0-33.8944 27.5456-61.44 61.44-61.44l153.6 0c33.8944 0 61.44 27.5456 61.44 61.44L453.632 793.6z" p-id="3273" fill="#515151"></path><path d="M801.9968 537.6l-153.6 0c-56.32 0-102.6048 46.08-102.6048 102.4l0 153.6c0 56.32 46.2848 102.4 102.6048 102.4l153.6 0c56.32 0 102.1952-46.08 102.1952-102.4L904.192 640C904.192 583.68 858.3168 537.6 801.9968 537.6zM863.232 793.6c0 33.8944-27.5456 61.44-61.44 61.44L648.192 855.04c-33.8944 0-61.44-27.5456-61.44-61.44L586.752 640c0-33.8944 27.5456-61.44 61.44-61.44l153.6 0c33.8944 0 61.44 27.5456 61.44 61.44L863.232 793.6z" p-id="3274" fill="#515151"></path></svg>