<?xml version="1.0" standalone="no"?><!DOCTYPE svg PUBLIC "-//W3C//DTD SVG 1.1//EN" "http://www.w3.org/Graphics/SVG/1.1/DTD/svg11.dtd"><svg t="1529719565989" class="icon" style="" viewBox="0 0 1024 1024" version="1.1" xmlns="http://www.w3.org/2000/svg" p-id="8567" xmlns:xlink="http://www.w3.org/1999/xlink" width="32" height="32"><defs><style type="text/css"></style></defs><path d="M953.29987 396.862714c21.29707 21.29707 31.945605 47.09929 31.945605 77.509049l0 73.0039c0 30.409759-10.648535 56.211979-31.945605 77.509049-21.29707 21.29707-47.09929 31.945605-77.509049 31.945605L802.786921 656.830317c0 77.509049-20.887511 149.386661-62.662534 215.530447C698.246975 938.50455 642.342166 988.368363 572.409959 1021.747425 570.874113 1023.283272 513.945405 1024 401.419058 1024c-112.526347 0-169.557444-0.716728-170.990901-2.252575C160.393561 988.368363 104.591141 938.50455 62.713729 872.360764 20.938706 806.216978 0.051195 734.339366 0.051195 656.830317L0.051195 383.244876c0-12.184382 6.040996-18.225377 18.225377-18.225377l857.411859 0C906.09819 364.917108 932.0028 375.565643 953.29987 396.862714zM766.233777 401.470253 36.50195 401.470253l0 255.360064c0 69.932207 18.634937 134.540146 55.90481 193.823818 37.269873 59.283672 87.031297 104.130387 149.386661 134.540146l319.251275 0c62.355364-30.409759 112.116788-75.256474 149.386661-134.540146 37.269873-59.283672 55.90481-123.891611 55.90481-193.823818L766.336166 401.470253zM271.384062 271.435256c13.720228-13.720228 20.477952-31.126487 20.477952-52.423558 0-21.29707-14.436956-44.846715-43.310869-70.648935C242.510149 143.755224 237.185881 138.430957 232.680732 132.389961 231.144886 130.854115 228.482752 128.60154 224.694331 125.529847c-3.788421-3.071693-6.450555-5.324268-7.986401-6.860114C193.875012 99.010899 182.509749 83.754825 182.509749 73.106289c0-24.266373 12.184382-36.450755 36.450755-36.450755 12.184382 0 18.225377-6.040996 18.225377-18.225377C237.185881 6.143386 231.144886 0.10239 218.960504 0.10239 197.663434 0.10239 180.257174 6.962504 166.536946 20.580342c-13.720228 13.720228-20.477952 31.126487-20.477952 52.423558 0 21.29707 15.153685 45.563444 45.563444 73.0039l13.720228 13.720228c4.505149 3.071693 10.648535 8.39596 18.225377 15.972803 21.29707 18.225377 31.945605 32.764724 31.945605 43.310869 0 24.368763-12.184382 36.450755-36.450755 36.450755-12.184382 0-18.225377 6.040996-18.225377 18.225377 0 12.184382 6.040996 18.225377 18.225377 18.225377C240.257574 292.015598 257.766223 285.155484 271.384062 271.435256zM453.842616 271.435256c13.720228-13.720228 20.477952-31.126487 20.477952-52.423558 0-21.29707-14.436956-44.846715-43.310869-70.648935C424.968703 143.755224 419.644436 138.430957 415.036896 132.389961 413.60344 130.854115 410.941306 128.60154 407.152885 125.529847c-3.788421-3.071693-6.450555-5.324268-7.986401-6.860114C376.333567 99.010899 364.865913 83.754825 364.865913 73.106289c0-24.266373 12.184382-36.450755 36.450755-36.450755 12.184382 0 18.225377-6.040996 18.225377-18.225377C419.644436 6.143386 413.60344 0.10239 401.419058 0.10239 380.121988 0.10239 362.613339 6.962504 348.9955 20.580342c-13.720228 13.720228-20.477952 31.126487-20.477952 52.423558 0 21.29707 15.153685 45.563444 45.563444 73.0039l13.720228 13.720228c4.505149 3.071693 10.648535 8.39596 18.225377 15.972803 21.29707 18.225377 31.945605 32.764724 31.945605 43.310869 0 24.368763-12.184382 36.450755-36.450755 36.450755-12.184382 0-18.225377 6.040996-18.225377 18.225377 0 12.184382 6.040996 18.225377 18.225377 18.225377C422.716128 292.015598 440.122388 285.155484 453.842616 271.435256zM636.30117 271.435256c13.720228-13.720228 20.477952-31.126487 20.477952-52.423558 0-21.29707-14.436956-44.846715-43.310869-70.648935C607.427257 143.755224 602.10299 138.430957 597.49545 132.389961 595.959604 130.854115 593.29747 128.60154 589.509049 125.529847 585.720628 122.458154 583.058494 120.205579 581.522648 118.669733 558.792121 99.010899 547.324468 83.754825 547.324468 73.106289c0-24.266373 12.184382-36.450755 36.450755-36.450755 12.184382 0 18.225377-6.040996 18.225377-18.225377C602.10299 6.143386 595.959604 0.10239 583.877612 0.10239 562.580542 0.10239 545.071893 6.962504 531.351665 20.580342c-13.720228 13.720228-20.477952 31.126487-20.477952 52.423558 0 21.29707 15.153685 45.563444 45.563444 73.0039l13.720228 13.720228c4.505149 3.071693 10.648535 8.39596 18.225377 15.972803 21.29707 18.225377 31.945605 32.764724 31.945605 43.310869 0 24.368763-12.184382 36.450755-36.450755 36.450755-12.184382 0-18.225377 6.040996-18.225377 18.225377 0 12.184382 6.040996 18.225377 18.225377 18.225377C605.072293 292.015598 622.580942 285.155484 636.30117 271.435256zM948.692331 474.474153c0-21.29707-6.860114-38.805719-20.477952-52.423558-13.720228-13.720228-31.126487-20.477952-52.423558-20.477952L802.786921 401.572643l0 218.909309 73.0039 0c21.29707 0 38.805719-6.860114 52.423558-20.580342 13.720228-13.720228 20.477952-31.126487 20.477952-52.423558L948.692331 474.474153z" p-id="8568" fill="#515151"></path></svg>