<?xml version="1.0" standalone="no"?><!DOCTYPE svg PUBLIC "-//W3C//DTD SVG 1.1//EN" "http://www.w3.org/Graphics/SVG/1.1/DTD/svg11.dtd"><svg t="1529462005038" class="icon" style="" viewBox="0 0 1024 1024" version="1.1" xmlns="http://www.w3.org/2000/svg" p-id="4239" xmlns:xlink="http://www.w3.org/1999/xlink" width="32" height="32"><defs><style type="text/css"></style></defs><path d="M635.04687473 775.671875l33.39843722 0L668.44531277 492.66406223l-24.60937527 0c-1.75781223 10.546875-5.2734375 19.33593777-10.546875 26.3671875-5.2734375 7.03124973-10.546875 12.30468723-17.57812473 15.8203125-7.03124973 3.51562527-15.8203125 7.03124973-24.60937527 8.78906277-8.78906277 1.75781223-17.57812473 1.75781223-26.3671875 1.75781223l0 26.3671875 70.31249973 0L635.04687473 775.671875zM828.40625 195.59375l-70.31249973 0L758.09375027 142.859375c0-10.546875-7.03124973-17.57812473-17.57812473-17.57812473s-17.57812473 7.03124973-17.57812471 17.57812473l0 52.734375L301.0625 195.59375 301.0625 142.859375c0-10.546875-7.03124973-17.57812473-17.57812473-17.57812473-10.546875 0-17.57812473 7.03124973-17.57812473 17.57812473l0 52.734375L195.59375 195.59375c-38.67187473 0-70.31249973 31.640625-70.31249973 70.31249973l0 105.46875 0 35.15625027 0 421.875c0 38.67187473 31.640625 70.31249973 70.31249973 70.31249973l632.8125 0c38.67187473 0 70.31249973-31.640625 70.31249973-70.31249973L898.71874973 406.53125l0-35.15625027 0-105.46875C898.71874973 227.234375 867.07812473 195.59375 828.40625 195.59375zM863.56250027 828.40625c0 19.33593777-15.8203125 35.15625027-35.15625027 35.15625027L195.59375 863.56250027c-19.33593777 0-35.15625027-15.8203125-35.15625027-35.15625027L160.43749973 406.53125l703.12499973 0L863.56250027 828.40625zM863.56250027 371.37499973L160.43749973 371.37499973l0-105.46875c0-19.33593777 15.8203125-35.15625027 35.15625027-35.15625028l70.31249973 0 0 52.734375c0 10.546875 7.03124973 17.57812473 17.57812473 17.57812472 10.546875 0 17.57812473-7.03124973 17.57812471-17.57812472L301.0625 230.75000027l421.875 0 0 52.734375c0 10.546875 7.03124973 17.57812473 17.57812473 17.57812473s17.57812473-7.03124973 17.57812473-17.57812473L758.09375027 230.75000027l70.31249973 0c19.33593777 0 35.15625027 15.8203125 35.15625027 35.15625027L863.56250027 371.37499973zM468.05468777 735.24218723c-5.2734375 5.2734375-12.30468723 8.78906277-19.33593777 10.546875-7.03124973 1.75781223-14.06250027 3.51562527-22.85156223 3.51562527-19.33593777 0-33.39843723-5.2734375-42.1875-17.57812473-10.546875-12.30468723-15.8203125-26.3671875-15.8203125-43.94531223l-33.39843722 0c0 14.06250027 1.75781223 28.12499973 5.2734375 38.67187473s10.546875 21.09375 17.57812472 28.12499973c8.78906277 7.03124973 17.57812473 14.06250027 29.88281278 17.57812473 10.546875 3.51562527 24.60937527 5.2734375 38.67187472 5.2734375 12.30468723 0 24.60937527-1.75781223 36.9140625-5.2734375s21.09375-8.78906277 29.88281278-15.8203125c8.78906277-7.03124973 15.8203125-15.8203125 21.09375-26.3671875 5.2734375-10.546875 7.03124973-22.85156223 7.03124972-36.9140625 0-17.57812473-3.51562527-31.640625-12.30468722-43.94531223-8.78906277-12.30468723-21.09375-21.09375-36.9140625-24.60937527l0 0c10.546875-5.2734375 19.33593777-12.30468723 26.3671875-22.85156223 7.03124973-10.546875 10.546875-21.09375 10.546875-33.39843723 0-12.30468723-1.75781223-24.60937527-7.03124972-33.39843722-3.51562527-8.78906277-10.546875-17.57812473-17.57812473-22.85156223-7.03124973-5.2734375-15.8203125-10.546875-26.3671875-14.06250027-10.546875-3.51562527-21.09375-5.2734375-33.39843723-5.2734375-14.06250027 0-26.3671875 1.75781223-36.9140625 7.03124972-10.546875 5.2734375-19.33593777 10.546875-26.3671875 19.33593778s-12.30468723 17.57812473-15.8203125 28.12499972c-3.51562527 10.546875-5.2734375 22.85156223-7.03124972 36.9140625l33.39843722 0c0-8.78906277 1.75781223-15.8203125 3.51562528-22.85156222 1.75781223-7.03124973 5.2734375-14.06250027 8.78906277-19.33593778 3.51562527-5.2734375 8.78906277-10.546875 15.8203125-14.06250027 7.03124973-3.51562527 14.06250027-5.2734375 22.85156223-5.2734375 14.06250027 0 26.3671875 3.51562527 35.15625027 10.546875 8.78906277 7.03124973 14.06250027 19.33593777 14.06250027 33.39843723 0 7.03124973-1.75781223 14.06250027-3.51562527 19.33593777-3.51562527 5.2734375-7.03124973 10.546875-10.546875 14.06250027s-10.546875 7.03124973-15.8203125 8.78906278c-7.03124973 1.75781223-12.30468723 3.51562527-19.33593777 3.51562527l-7.03124973 0c-1.75781223 0-1.75781223 0-3.51562527 0-1.75781223 0-1.75781223 0-3.51562528 0l0 28.12499973c7.03124973 0 12.30468723-1.75781223 19.33593778-1.75781223 8.78906277 0 15.8203125 1.75781223 22.85156222 3.51562528 7.03124973 1.75781223 14.06250027 5.2734375 17.57812473 10.546875 5.2734375 5.2734375 8.78906277 10.546875 12.30468723 17.57812472 3.51562527 7.03124973 5.2734375 14.06250027 5.2734375 22.85156223 0 8.78906277-1.75781223 15.8203125-5.2734375 22.85156222C478.60156277 724.69531223 473.32812527 731.72656277 468.05468777 735.24218723z" p-id="4240" fill="#ffffff"></path></svg>