<?xml version="1.0" standalone="no"?><!DOCTYPE svg PUBLIC "-//W3C//DTD SVG 1.1//EN" "http://www.w3.org/Graphics/SVG/1.1/DTD/svg11.dtd"><svg t="1529548129533" class="icon" style="" viewBox="0 0 1024 1024" version="1.1" xmlns="http://www.w3.org/2000/svg" p-id="5217" xmlns:xlink="http://www.w3.org/1999/xlink" width="32" height="32"><defs><style type="text/css"></style></defs><path d="M921.31634 667.944701c-18.204617 0-32.949436 14.744819-32.949436 32.949436 0 6.02932 0 148.271952 0 148.271952 0 18.204617-14.744819 32.949436-32.949436 32.949436L163.484422 882.115526c-18.204617 0-32.949436-14.744819-32.949436-32.949436 0 0 0-142.241608 0-148.271952 0-18.204617-14.744819-32.949436-32.949436-32.949436-18.204617 0-32.949436 14.744819-32.949436 32.949436 0 2.520403 0 181.220365 0 181.220365 0 36.392862 29.506011 65.898873 65.898873 65.898873l757.831918 0c36.391838 0 65.898873-29.506011 65.898873-65.898873 0 0 0-175.191044 0-181.220365C954.265776 682.689521 939.520957 667.944701 921.31634 667.944701z" p-id="5218" fill="#ffffff"></path><path d="M478.854089 733.360574c12.867052 12.867052 33.724079 12.867052 46.590108 0l256.295224-256.295224c12.867052-12.867052 12.867052-33.723056 0-46.590108-12.883425-12.867052-33.739429-12.867052-46.606481 0L534.163789 631.445416 534.163789 74.857918c0-18.204617-14.744819-32.949436-32.949436-32.949436-18.204617 0-32.949436 14.744819-32.949436 32.949436l0 554.716894L269.165346 430.475242c-12.867052-12.867052-33.723056-12.867052-46.606481 0-12.867052 12.867052-12.867052 33.723056 0 46.590108L478.854089 733.360574z" p-id="5219" fill="#ffffff"></path></svg>