<?xml version="1.0" standalone="no"?><!DOCTYPE svg PUBLIC "-//W3C//DTD SVG 1.1//EN" "http://www.w3.org/Graphics/SVG/1.1/DTD/svg11.dtd"><svg t="1529462282747" class="icon" style="" viewBox="0 0 1024 1024" version="1.1" xmlns="http://www.w3.org/2000/svg" p-id="9661" xmlns:xlink="http://www.w3.org/1999/xlink" width="32" height="32"><defs><style type="text/css"></style></defs><path d="M934.331 276.701h-734.469l158.451-158.451c19.263-19.263 19.263-50.954 0-70.215s-50.332-19.263-70.215 0l-227.425 228.046c-25.476 22.991-25.476 62.758-25.476 77.052v574.774c0 27.341 22.37 49.711 49.711 49.711h849.424c27.341 0 49.711-22.37 49.711-49.711v-601.494c-0.621-27.341-22.37-49.711-49.711-49.711zM296.796 761.376c-70.837 0-128.626-57.788-128.626-128.626 0-70.837 57.167-128.626 128.626-128.626 70.837 0 128.626 57.788 128.626 128.626-0.621 70.837-57.788 128.626-128.626 128.626zM829.94 770.696h-257.25c-16.156 0-29.826-13.050-29.826-29.826 0-16.156 13.050-29.826 29.826-29.826h257.25c16.156 0 29.826 13.050 29.826 29.826 0 16.778-13.67 29.826-29.826 29.826zM829.94 569.991h-257.25c-16.156 0-29.826-13.050-29.826-29.826 0-16.156 13.050-29.826 29.826-29.826h257.25c16.156 0 29.826 13.67 29.826 29.826 0 16.778-13.67 29.826-29.826 29.826z" fill="#ffffff" p-id="9662"></path></svg>