<svg class="logosvg" xmlns="http://www.w3.org/2000/svg">
  <path fill-rule="evenodd" fill="#e60012" d="M0,17.171C0,7.688,7.819,0,17.466,0h54.583 c9.646,0,17.466,7.688,17.466,17.171v53.658c0,4.742-1.705,8.789-5.116,12.142c-3.411,3.354-7.527,5.03-12.351,5.03H17.466 C7.819,88.001,0,80.313,0,70.829V17.171z" data-reactid="90"></path>
  <path fill="#fff" d="m63.6 29c-2.874-1.817-6.396-2.814-10.02-2.993l-.808-2.892.024.027c-.031-.086-.059-.17-.086-.252l-.239-.855c-.552-2.473.454-3.653.969-4.078.088-.064.179-.129.277-.192 2.364-1.535 5.731.924 5.92 1.068 1.494 1.403 4.229 1.75 5.704.314 1.491-1.451 1.136-4.165-.354-5.617-2.32-2.258-9.443-5.885-15.504-1.951-5.45 3.537-5.558 8.515-4.662 11.392l1.086 3.893c-1.819.51-3.564 1.241-5.159 2.191-5.967 3.559-8.96 9.565-8.212 16.479.767 7.097 6.216 12.247 12.957 12.247 7.157 0 12.978-5.668 12.978-12.636-.097-1.664-.077-1.644-.307-3.131-.224-1.451-2.422-8.271-2.422-8.271 1.35.304 2.613.801 3.702 1.489 12.307 7.788 7.186 20.18 6.955 20.726-3.389 7.919-10.78 12.646-20.277 12.973-6.188.214-12.12-2.041-16.697-6.346-4.829-4.537-7.598-10.895-7.598-17.44 0-9.859 6.369-18.812 15.847-22.274 1.973-.722 3.567-2.776 2.476-5.162-.859-1.875-3.185-2.52-5.158-1.798-12.44 4.546-20.798 16.294-20.798 29.23 0 8.552 3.619 16.857 9.929 22.788 5.819 5.469 13.307 8.445 21.19 8.444.358 0 .719-.006 1.078-.018 12.422-.427 22.536-6.984 27.04-17.509 2.812-6.392 4.38-20.857-9.827-29.85m-12.768 16.15c0 2.868-2.397 5.202-5.344 5.202-3.271 0-5.073-2.898-5.365-5.592-.555-5.135 2.2-7.926 4.609-9.363.977-.582 2.051-1.038 3.172-1.369 0 0 2.598 8.05 2.801 9.297.223 1.379.127 1.825.127 1.825" data-reactid="91"></path>
</svg>
