<?xml version="1.0" standalone="no"?><!DOCTYPE svg PUBLIC "-//W3C//DTD SVG 1.1//EN" "http://www.w3.org/Graphics/SVG/1.1/DTD/svg11.dtd"><svg t="1529482885899" class="icon" style="" viewBox="0 0 1024 1024" version="1.1" xmlns="http://www.w3.org/2000/svg" p-id="2011" xmlns:xlink="http://www.w3.org/1999/xlink" width="32" height="32"><defs><style type="text/css"></style></defs><path d="M452.353528 899.703089c0-32.954553 26.473955-59.646472 59.646472-59.646472 32.943296 0 59.646472 26.481118 59.646472 59.646472 0 32.954553-26.473955 59.646472-59.646472 59.646472C479.056704 959.349561 452.353528 932.868443 452.353528 899.703089z" p-id="2012" fill="#ffffff"></path><path d="M452.353528 512c0-32.954553 26.473955-59.646472 59.646472-59.646472 32.943296 0 59.646472 26.481118 59.646472 59.646472 0 32.954553-26.473955 59.646472-59.646472 59.646472C479.056704 571.646472 452.353528 545.165354 452.353528 512z" p-id="2013" fill="#ffffff"></path><path d="M452.353528 124.296911c0-32.954553 26.473955-59.646472 59.646472-59.646472 32.943296 0 59.646472 26.481118 59.646472 59.646472 0 32.954553-26.473955 59.646472-59.646472 59.646472C479.056704 183.943382 452.353528 157.462265 452.353528 124.296911z" p-id="2014" fill="#ffffff"></path></svg>