<?xml version="1.0" standalone="no"?><!DOCTYPE svg PUBLIC "-//W3C//DTD SVG 1.1//EN" "http://www.w3.org/Graphics/SVG/1.1/DTD/svg11.dtd"><svg t="1529741457285" class="icon" style="" viewBox="0 0 1024 1024" version="1.1" xmlns="http://www.w3.org/2000/svg" p-id="11785" xmlns:xlink="http://www.w3.org/1999/xlink" width="32" height="32"><defs><style type="text/css"></style></defs><path d="M512 256C547.346224 256 576 227.346224 576 192 576 156.653776 547.346224 128 512 128 476.653776 128 448 156.653776 448 192 448 227.346224 476.653776 256 512 256ZM512 576C547.346224 576 576 547.346224 576 512 576 476.653776 547.346224 448 512 448 476.653776 448 448 476.653776 448 512 448 547.346224 476.653776 576 512 576ZM512 896C547.346224 896 576 867.346221 576 832 576 796.653779 547.346224 768 512 768 476.653776 768 448 796.653779 448 832 448 867.346221 476.653776 896 512 896Z" p-id="11786" fill="#8a8a8a"></path></svg>