<?xml version="1.0" standalone="no"?><!DOCTYPE svg PUBLIC "-//W3C//DTD SVG 1.1//EN" "http://www.w3.org/Graphics/SVG/1.1/DTD/svg11.dtd"><svg t="1529462141111" class="icon" style="" viewBox="0 0 1024 1024" version="1.1" xmlns="http://www.w3.org/2000/svg" p-id="6541" xmlns:xlink="http://www.w3.org/1999/xlink" width="32" height="32"><defs><style type="text/css"></style></defs><path d="M-64.717 943.082v-46.604h116.509v-559.241c0-28.906 23.517-52.429 52.429-52.429h238.843v-151.461c0-28.906 23.517-52.429 52.429-52.429h233.017c28.912 0 52.429 23.523 52.429 52.429v355.35h238.843c28.912 0 52.429 23.523 52.429 52.429v355.35h116.509v46.604h-1153.434zM680.938 896.478h244.668v-297.097c0-2.598 0.022-5.161 0.041-7.661 0.157-20.086 0.291-37.445-10.007-47.833-5.732-5.779-13.905-8.587-24.986-8.587h-209.715v361.177zM424.619 127.522c-19.276 0-34.953 15.677-34.953 34.953v734.003h244.668v-734.003c0-19.276-15.67-34.953-34.953-34.953h-174.763zM133.347 331.412c-13.777 0-22.318 2.418-27.7 7.847-7.532 7.59-7.427 19.445-7.293 35.85 0.017 2.412 0.041 4.974 0.041 7.643v513.733h244.668v-565.066l-209.715-0.005z" fill="#ffffff" p-id="6542"></path></svg>