<?xml version="1.0" standalone="no"?><!DOCTYPE svg PUBLIC "-//W3C//DTD SVG 1.1//EN" "http://www.w3.org/Graphics/SVG/1.1/DTD/svg11.dtd"><svg t="1529547756537" class="icon" style="" viewBox="0 0 1024 1024" version="1.1" xmlns="http://www.w3.org/2000/svg" p-id="2611" xmlns:xlink="http://www.w3.org/1999/xlink" width="32" height="32"><defs><style type="text/css"></style></defs><path d="M769.130667 660.224c-56.682667 0-104.661333 37.013333-121.258667 88.149333l-282.282667-174.186667c10.666667-18.624 16.832-40.149333 16.832-63.168 0-15.658667-2.965333-30.613333-8.128-44.458667l280.874667-173.312c20.928 41.792 64.042667 70.549333 113.984 70.549333 70.442667 0 127.530667-57.088 127.530667-127.530667s-57.088-127.530667-127.530667-127.530667-127.530667 57.088-127.530667 127.530667c0 4.970667 0.362667 9.834667 0.896 14.656l-289.514667 178.666667c-23.402667-28.138667-58.645333-46.08-98.112-46.08-70.442667 0-127.530667 57.088-127.530667 127.530667s57.088 127.530667 127.530667 127.530667c31.893333 0 60.970667-11.776 83.328-31.125333l303.744 187.434667c3.712 67.093333 59.136 120.405333 127.168 120.405333 70.442667 0 127.530667-57.088 127.530667-127.530667S839.552 660.224 769.130667 660.224zM769.130667 151.850667c46.613333 0 84.394667 37.781333 84.394667 84.394667 0 46.613333-37.781333 84.394667-84.394667 84.394667-46.613333 0-84.394667-37.781333-84.394667-84.394667C684.714667 189.632 722.496 151.850667 769.130667 151.850667zM254.869333 595.413333c-46.613333 0-84.394667-37.781333-84.394667-84.394667 0-46.613333 37.781333-84.394667 84.394667-84.394667 46.613333 0 84.394667 37.781333 84.394667 84.394667C339.285333 557.632 301.482667 595.413333 254.869333 595.413333zM769.130667 872.149333c-46.613333 0-84.394667-37.781333-84.394667-84.394667 0-46.613333 37.781333-84.394667 84.394667-84.394667 46.613333 0 84.394667 37.781333 84.394667 84.394667C853.525333 834.368 815.744 872.149333 769.130667 872.149333z" p-id="2612" fill="#ffffff"></path></svg>