<?xml version="1.0" standalone="no"?><!DOCTYPE svg PUBLIC "-//W3C//DTD SVG 1.1//EN" "http://www.w3.org/Graphics/SVG/1.1/DTD/svg11.dtd"><svg t="1530242839562" class="icon" style="" viewBox="0 0 1024 1024" version="1.1" xmlns="http://www.w3.org/2000/svg" p-id="2464" xmlns:xlink="http://www.w3.org/1999/xlink" width="32" height="32"><defs><style type="text/css"></style></defs><path d="M609.031174 794.451064 374.310448 664.050658C341.269904 700.170126 293.751033 722.823529 240.941176 722.823529 141.140073 722.823529 60.235294 641.918747 60.235294 542.117647 60.235294 442.316544 141.140073 361.411765 240.941176 361.411765 299.628345 361.411765 351.781306 389.388034 384.791241 432.731757L611.183152 296.896612C605.451246 279.27825 602.352941 260.471537 602.352941 240.941176 602.352941 141.140073 683.257723 60.235294 783.058824 60.235294 882.859924 60.235294 963.764706 141.140073 963.764706 240.941176 963.764706 340.74228 882.859924 421.647059 783.058824 421.647059 724.371655 421.647059 672.218696 393.670789 639.208761 350.327067L412.81685 486.162212C418.548755 503.780574 421.647059 522.587287 421.647059 542.117647 421.647059 567.409373 416.451163 591.487533 407.068579 613.342919L634.846015 739.885941C667.51179 693.153888 721.715808 662.588235 783.058824 662.588235 882.859924 662.588235 963.764706 743.493018 963.764706 843.294118 963.764706 943.095218 882.859924 1024 783.058824 1024 683.257723 1024 602.352941 943.095218 602.352941 843.294118 602.352941 826.368807 604.679837 809.98697 609.031174 794.451064L609.031174 794.451064 609.031174 794.451064ZM783.058824 361.411765C849.592892 361.411765 903.529412 307.475245 903.529412 240.941176 903.529412 174.407108 849.592892 120.470588 783.058824 120.470588 716.524755 120.470588 662.588235 174.407108 662.588235 240.941176 662.588235 307.475245 716.524755 361.411765 783.058824 361.411765L783.058824 361.411765ZM783.058824 963.764706C849.592892 963.764706 903.529412 909.828186 903.529412 843.294118 903.529412 776.760049 849.592892 722.823529 783.058824 722.823529 716.524755 722.823529 662.588235 776.760049 662.588235 843.294118 662.588235 909.828186 716.524755 963.764706 783.058824 963.764706L783.058824 963.764706ZM240.941176 662.588235C307.475245 662.588235 361.411765 608.651716 361.411765 542.117647 361.411765 475.583578 307.475245 421.647059 240.941176 421.647059 174.407108 421.647059 120.470588 475.583578 120.470588 542.117647 120.470588 608.651716 174.407108 662.588235 240.941176 662.588235L240.941176 662.588235Z" p-id="2465" fill="#ffffff"></path></svg>