<?xml version="1.0" standalone="no"?><!DOCTYPE svg PUBLIC "-//W3C//DTD SVG 1.1//EN" "http://www.w3.org/Graphics/SVG/1.1/DTD/svg11.dtd"><svg t="1529719405586" class="icon" style="" viewBox="0 0 1024 1024" version="1.1" xmlns="http://www.w3.org/2000/svg" p-id="3667" xmlns:xlink="http://www.w3.org/1999/xlink" width="32" height="32"><defs><style type="text/css"></style></defs><path d="M505.6 102.4c-226.976 0-409.6 182.624-409.6 409.6s182.624 409.6 409.6 409.6c226.976 0 409.6-182.624 409.6-409.6s-182.624-409.6-409.6-409.6zM505.6 887.456c-206.496 0-375.456-168.96-375.456-375.456s168.96-375.456 375.456-375.456c206.496 0 375.456 168.96 375.456 375.456s-168.96 375.456-375.456 375.456z" p-id="3668" fill="#515151"></path><path d="M718.944 609.28c-8.544-3.424-18.784-1.696-22.176 6.816-37.536 73.376-110.944 117.76-191.136 117.76-81.92 0-153.6-44.384-191.136-117.76-3.424-8.544-13.664-11.936-22.176-6.816-8.544 3.424-11.936 13.664-8.544 22.176 42.656 83.616 126.304 136.544 221.856 136.544 93.856 0 179.2-52.896 220.16-136.544 5.12-8.544 1.696-18.784-6.816-22.176z" p-id="3669" fill="#515151"></path><path d="M420.256 426.656c0 28.288-22.912 51.2-51.2 51.2s-51.2-22.912-51.2-51.2c0-28.288 22.912-51.2 51.2-51.2s51.2 22.912 51.2 51.2z" p-id="3670" fill="#515151"></path><path d="M693.344 426.656c0 28.288-22.912 51.2-51.2 51.2s-51.2-22.912-51.2-51.2c0-28.288 22.912-51.2 51.2-51.2s51.2 22.912 51.2 51.2z" p-id="3671" fill="#515151"></path></svg>